<svg width="616" height="170" viewBox="0 0 616 170" fill="none" xmlns="http://www.w3.org/2000/svg">
<rect width="615.459" height="170" fill="white"/>
<path d="M80 112.411V73.5806L113.667 54.5L125.144 56.8165L92.2425 76.1515V76.5063V105.656L113.667 93.8345L125.144 95.9614L92.2425 115.5L80 112.411Z" fill="black"/>
<path d="M105.856 112.411V73.5806L139.523 54.5L151 56.8165L118.098 76.1515V76.5063V105.656L139.523 93.8345L151 95.9614L118.098 115.5L105.856 112.411Z" fill="black"/>
<path d="M221.25 90.086C220.837 93.8887 219.493 97.2573 217.22 100.192C214.988 103.085 212.053 105.338 208.416 106.95C204.779 108.562 200.625 109.368 195.954 109.368C190.746 109.368 186.179 108.355 182.252 106.33C178.325 104.305 175.267 101.494 173.076 97.898C170.885 94.2607 169.79 90.0447 169.79 85.25C169.79 80.4553 170.885 76.26 173.076 72.664C175.267 69.0267 178.325 66.1953 182.252 64.17C186.179 62.1447 190.746 61.132 195.954 61.132C200.625 61.132 204.779 61.938 208.416 63.55C212.053 65.162 214.988 67.4147 217.22 70.308C219.493 73.2013 220.837 76.57 221.25 80.414H213.004C212.549 77.934 211.557 75.8053 210.028 74.028C208.54 72.2507 206.597 70.8867 204.2 69.936C201.803 68.944 199.033 68.448 195.892 68.448C192.255 68.448 189.093 69.13 186.406 70.494C183.761 71.858 181.715 73.8007 180.268 76.322C178.821 78.8433 178.098 81.8193 178.098 85.25C178.098 88.6807 178.821 91.6567 180.268 94.178C181.715 96.6993 183.761 98.642 186.406 100.006C189.093 101.37 192.255 102.052 195.892 102.052C199.033 102.052 201.803 101.577 204.2 100.626C206.597 99.6753 208.54 98.3113 210.028 96.534C211.557 94.7153 212.549 92.566 213.004 90.086H221.25Z" fill="black"/>
<path d="M236.943 62V104.842L233.285 101.308H268.315V108.5H228.759V62H236.943Z" fill="black"/>
<path d="M295.988 109.368C290.697 109.368 286.047 108.355 282.038 106.33C278.028 104.305 274.908 101.494 272.676 97.898C270.444 94.2607 269.328 90.0447 269.328 85.25C269.328 80.4553 270.444 76.26 272.676 72.664C274.908 69.0267 278.028 66.1953 282.038 64.17C286.047 62.1447 290.697 61.132 295.988 61.132C301.278 61.132 305.928 62.1447 309.938 64.17C313.947 66.1953 317.068 69.0267 319.3 72.664C321.532 76.26 322.648 80.4553 322.648 85.25C322.648 90.0447 321.532 94.2607 319.3 97.898C317.068 101.494 313.947 104.305 309.938 106.33C305.928 108.355 301.278 109.368 295.988 109.368ZM295.988 102.052C299.749 102.052 302.994 101.37 305.722 100.006C308.45 98.642 310.558 96.6993 312.046 94.178C313.575 91.6567 314.34 88.6807 314.34 85.25C314.34 81.8193 313.575 78.8433 312.046 76.322C310.558 73.8007 308.45 71.858 305.722 70.494C302.994 69.13 299.749 68.448 295.988 68.448C292.268 68.448 289.023 69.13 286.254 70.494C283.526 71.858 281.397 73.8007 279.868 76.322C278.38 78.8433 277.636 81.8193 277.636 85.25C277.636 88.6807 278.38 91.6567 279.868 94.178C281.397 96.6993 283.526 98.642 286.254 100.006C289.023 101.37 292.268 102.052 295.988 102.052Z" fill="black"/>
<path d="M373.689 103.54L370.341 103.912V62H378.277V108.5H367.861L335.249 66.588L338.535 66.216V108.5H330.599V62H341.263L373.689 103.54Z" fill="black"/>
<path d="M406.395 108.5V86.304H414.579V108.5H406.395ZM384.447 62H393.685L412.657 85.808H408.255L427.227 62H436.465L413.091 91.326L407.883 91.388L384.447 62Z" fill="black"/>
<path d="M446.639 82.336H480.057V89.528H446.639V82.336ZM481.049 62V69.192H446.391L450.855 64.542V108.5H442.671V62H481.049Z" fill="black"/>
<path d="M505.389 108.5V86.304H513.573V108.5H505.389ZM483.441 62H492.679L511.651 85.808H507.249L526.221 62H535.459L512.085 91.326L506.877 91.388L483.441 62Z" fill="black"/>
</svg>
