<svg width="526" height="170" viewBox="0 0 526 170" fill="none" xmlns="http://www.w3.org/2000/svg">
<rect width="525.669" height="170" fill="black"/>
<path d="M131.46 89.8361C131.047 93.6387 129.703 97.0074 127.43 99.9421C125.198 102.835 122.263 105.088 118.626 106.7C114.989 108.312 110.835 109.118 106.164 109.118C100.956 109.118 96.3887 108.105 92.462 106.08C88.5353 104.055 85.4767 101.244 83.286 97.6481C81.0953 94.0107 80 89.7947 80 85.0001C80 80.2054 81.0953 76.0101 83.286 72.4141C85.4767 68.7768 88.5353 65.9454 92.462 63.9201C96.3887 61.8947 100.956 60.8821 106.164 60.8821C110.835 60.8821 114.989 61.6881 118.626 63.3001C122.263 64.9121 125.198 67.1647 127.43 70.0581C129.703 72.9514 131.047 76.3201 131.46 80.1641H123.214C122.759 77.6841 121.767 75.5554 120.238 73.7781C118.75 72.0007 116.807 70.6367 114.41 69.6861C112.013 68.6941 109.243 68.1981 106.102 68.1981C102.465 68.1981 99.3027 68.8801 96.616 70.2441C93.9707 71.6081 91.9247 73.5507 90.478 76.0721C89.0313 78.5934 88.308 81.5694 88.308 85.0001C88.308 88.4307 89.0313 91.4067 90.478 93.9281C91.9247 96.4494 93.9707 98.3921 96.616 99.7561C99.3027 101.12 102.465 101.802 106.102 101.802C109.243 101.802 112.013 101.327 114.41 100.376C116.807 99.4254 118.75 98.0614 120.238 96.2841C121.767 94.4654 122.759 92.3161 123.214 89.8361H131.46Z" fill="white"/>
<path d="M147.153 61.7501V104.592L143.495 101.058H178.525V108.25H138.969V61.7501H147.153Z" fill="white"/>
<path d="M206.198 109.118C200.907 109.118 196.257 108.105 192.248 106.08C188.238 104.055 185.118 101.244 182.886 97.6481C180.654 94.0107 179.538 89.7947 179.538 85.0001C179.538 80.2054 180.654 76.0101 182.886 72.4141C185.118 68.7768 188.238 65.9454 192.248 63.9201C196.257 61.8947 200.907 60.8821 206.198 60.8821C211.488 60.8821 216.138 61.8947 220.148 63.9201C224.157 65.9454 227.278 68.7768 229.51 72.4141C231.742 76.0101 232.858 80.2054 232.858 85.0001C232.858 89.7947 231.742 94.0107 229.51 97.6481C227.278 101.244 224.157 104.055 220.148 106.08C216.138 108.105 211.488 109.118 206.198 109.118ZM206.198 101.802C209.959 101.802 213.204 101.12 215.932 99.7561C218.66 98.3921 220.768 96.4494 222.256 93.9281C223.785 91.4067 224.55 88.4307 224.55 85.0001C224.55 81.5694 223.785 78.5934 222.256 76.0721C220.768 73.5507 218.66 71.6081 215.932 70.2441C213.204 68.8801 209.959 68.1981 206.198 68.1981C202.478 68.1981 199.233 68.8801 196.464 70.2441C193.736 71.6081 191.607 73.5507 190.078 76.0721C188.59 78.5934 187.846 81.5694 187.846 85.0001C187.846 88.4307 188.59 91.4067 190.078 93.9281C191.607 96.4494 193.736 98.3921 196.464 99.7561C199.233 101.12 202.478 101.802 206.198 101.802Z" fill="white"/>
<path d="M283.899 103.29L280.551 103.662V61.7501H288.487V108.25H278.071L245.459 66.3381L248.745 65.9661V108.25H240.809V61.7501H251.473L283.899 103.29Z" fill="white"/>
<path d="M316.605 108.25V86.0541H324.789V108.25H316.605ZM294.657 61.7501H303.895L322.867 85.5581H318.465L337.437 61.7501H346.675L323.301 91.0761L318.093 91.1381L294.657 61.7501Z" fill="white"/>
<path d="M356.849 82.0861H390.267V89.2781H356.849V82.0861ZM391.259 61.7501V68.9421H356.601L361.065 64.2921V108.25H352.881V61.7501H391.259Z" fill="white"/>
<path d="M415.599 108.25V86.0541H423.783V108.25H415.599ZM393.651 61.7501H402.889L421.861 85.5581H417.459L436.431 61.7501H445.669L422.295 91.0761L417.087 91.1381L393.651 61.7501Z" fill="white"/>
</svg>
